<?xml version="1.0" encoding="UTF-8"?>
<svg id="Capa_1" data-name="Capa 1" xmlns="http://www.w3.org/2000/svg" viewBox="0 0 15 15">
  <defs>
    <style>
      .cls-1 {
        fill: #fff;
      }
    </style>
  </defs>
  <path class="cls-1" d="m0,.5C0,.22.22,0,.5,0h1.5c.23,0,.43.16.49.38l.4,1.62h11.61c.28,0,.5.22.5.5,0,.03,0,.06,0,.09l-1.5,8c-.04.24-.25.41-.49.41H4c-.24,0-.45-.17-.49-.41l-1.5-7.98-.4-1.61H.5c-.28,0-.5-.22-.5-.5m5,10.5c-1.1,0-2,.9-2,2s.9,2,2,2,2-.9,2-2-.9-2-2-2m7,0c-1.1,0-2,.9-2,2s.9,2,2,2,2-.9,2-2-.9-2-2-2m-7,1c.55,0,1,.45,1,1s-.45,1-1,1-1-.45-1-1,.45-1,1-1m7,0c.55,0,1,.45,1,1s-.45,1-1,1-1-.45-1-1,.45-1,1-1"/>
</svg>